<svg xmlns="http://www.w3.org/2000/svg" width="600" height="400" viewBox="0 0 600 400">
  <rect width="600" height="400" fill="#e9ecef"/>
  <g fill="#adb5bd">
    <path d="M150 250l40-70a20 20 0 0 1 17-10h186a20 20 0 0 1 17 10l40 70v40a10 10 0 0 1-10 10h-20a25 25 0 0 1-50 0H230a25 25 0 0 1-50 0h-20a10 10 0 0 1-10-10z"/>
    <circle cx="205" cy="300" r="14" fill="#6c757d"/>
    <circle cx="395" cy="300" r="14" fill="#6c757d"/>
  </g>
  <text x="300" y="360" font-family="Segoe UI, Arial, sans-serif" font-size="22" fill="#6c757d" text-anchor="middle">No photo available</text>
</svg>
